<mxfile host="app.diagrams.net" modified="2024-04-03T09:59:08.423Z" agent="Mozilla/5.0 (Macintosh; Intel Mac OS X 10_15_7) AppleWebKit/537.36 (KHTML, like Gecko) Chrome/123.0.0.0 Safari/537.36" version="24.2.0" etag="trO9eqM7gBBKR5zkShC6" type="github">
  <diagram name="Page-1" id="xiJFmy8W3j6bK2qcpHs1">
    <mxGraphModel>
      <root>
        <mxCell id="0" />
        <mxCell id="1" parent="0" />
      </root>
    </mxGraphModel>
  </diagram>
</mxfile>
